<?xml version="1.0" encoding="UTF-8"?>
<svg width="1200pt" height="1200pt" version="1.1" viewBox="0 0 1200 1200" xmlns="http://www.w3.org/2000/svg">
 <path d="m1124.6 381.19-147.3-233.7-39.398 24.82c-4.0703 2.5977-6.9531 6.6953-8.0195 11.402-1.0664 4.7109-0.23047 9.6484 2.3242 13.746l127.92 202.85c2.6055 4.0625 6.7031 6.9336 11.41 7.9961s9.6406 0.22656 13.738-2.3242zm-414.38 415.45h-533.6v23.062h533.6zm-213.02 54.961h-107.55l13.266 25.781h81.023zm167.48 0-58.969 110.04c-1.8711 3.6914-4.7539 6.7734-8.3086 8.8906-3.5586 2.1133-7.6406 3.1758-11.777 3.0625h-284.39c-4.1406 0.12109-8.2305-0.94141-11.789-3.0586-3.5625-2.1172-6.4453-5.1992-8.3203-8.8945l-58.945-110.04h131.67l22.312 43.383c1.9258 4.1875 4.9922 7.7539 8.8438 10.285 3.8555 2.5312 8.3438 3.9297 12.953 4.0352h90.891c4.6094-0.10938 9.0977-1.5078 12.949-4.0391 3.8516-2.5312 6.918-6.0938 8.8477-10.281l22.312-43.383zm-442.5-86.859h442.5l-58.969-110.16c-1.8672-3.6953-4.75-6.7812-8.3047-8.8984-3.5586-2.1133-7.6445-3.1758-11.781-3.0547h-284.39c-4.1406-0.12109-8.2305 0.94141-11.789 3.0586-3.5625 2.1172-6.4453 5.1992-8.3203 8.8945zm-46.875 0h10.781l66.984-124.9c4.5938-8.7734 11.52-16.113 20.012-21.211 8.4922-5.0977 18.223-7.7578 28.129-7.6875h284.41c9.9023-0.066406 19.629 2.5938 28.117 7.6914 8.4883 5.0977 15.406 12.438 20 21.207l66.984 124.9c12.469 0 22.359-1.0547 32.414 8.9766 5.7617 5.7344 8.9922 13.527 8.9766 21.656v25.594c-0.011719 8.1172-3.2422 15.898-8.9766 21.641-5.7383 5.7383-13.516 8.9727-21.633 8.9922h-10.781l-66.961 124.99c-4.5977 8.7695-11.523 16.105-20.016 21.199-8.4922 5.0938-18.223 7.75-28.125 7.6758h-284.39c-9.9062 0.078125-19.641-2.5781-28.141-7.6719-8.4961-5.0938-15.422-12.43-20.023-21.203l-66.938-124.99c-12.469 0-22.359 1.0547-32.414-9-5.7539-5.7266-8.9844-13.516-8.9766-21.633v-25.594c0.011719-8.1172 3.2422-15.898 8.9766-21.641 5.7383-5.7383 13.516-8.9727 21.633-8.9922zm634.15-159.82 47.625 411.33c4.6875 40.125-29.672 74.062-67.969 74.062h-683.25c-38.273 0-72.656-33.938-67.969-74.062l49.57-428.11c2.2656-20.672 7.9102-40.832 16.711-59.672l48.914-106.59c31.195-67.969 66.398-142.17 152.88-142.17h280.12c30.867 0 55.172 9.5625 75.352 25.266 23.93-20.344 46.875-39.609 61.922-50.742 19.547-14.391 28.828-16.945 52.57-18.914l77.344-5.0625c23.859-1.6641 26.109-2.1094 45.422-14.203l5.5312-3.5391c-6.3867-11.211-8.207-24.453-5.0781-36.969 3.1328-12.516 10.969-23.344 21.883-30.227l52.781-33.281c3.582-2.1953 7.8867-2.8828 11.973-1.918 4.0859 0.96875 7.6289 3.5078 9.8477 7.0742l164.32 260.55c2.2461 3.5703 2.9883 7.8828 2.0547 11.996-0.92969 4.1133-3.457 7.6914-7.0234 9.9414l-52.781 33.211c-8.8711 5.5664-19.266 8.2148-29.719 7.5703-10.457-0.64453-20.445-4.543-28.57-11.156l-61.266 38.648c-19.078 12.023-34.922 22.008-55.078 26.531 9 18.75 9.7969 43.5 0.21094 61.734-3.5898 6.7734-8.4414 12.797-14.297 17.742-20.039 17.273-54.586 22.664-80.016 27.047-6.6328 1.1484-14.953 2.5078-24.023 3.9141zm-25.43-89.297c10.195 21.234 16.406 34.523 21.094 57.867 21.258-3.3984 58.594-9.1641 76.219-16.734 4.1172-1.6758 7.9492-3.9766 11.367-6.8203 10.242-8.8359 11.719-21.094 8.8594-33.656-1.7109-7.4766-4.1719-12.703-10.664-15.891-14.766-7.2422-44.18-4.4297-59.672-1.1953-14.953 3.1172-31.266 9.375-47.25 16.406zm-237.38-64.688h-212.2c-32.812 0-50.367 40.172-26.508 64.055 7.0195 7.0508 16.559 11.023 26.508 11.039h222.66c-21.609-20.531-26.695-49.547-10.453-75zm49.664 96.938c13.734 3.9297 27.906 6.1055 42.188 6.4688 42.188 1.4062 75.867-7.6406 116.44-25.781 11.555 24.023 17.836 37.266 21.094 64.852l49.359 426.56c2.3438 20.719-16.406 38.555-36.328 38.555h-683.2c-19.992 0-38.719-17.836-36.328-38.555l49.57-428.23c1.8633-17.355 6.6172-34.277 14.062-50.062l48.914-106.62c14.836-32.367 29.906-64.477 49.805-87.75 18.375-21.469 41.578-35.742 74.18-35.742h280.03c48.844 0 77.344 34.617 98.93 73.57-5.3438 1.5703-10.758 2.8359-16.195 4.0781-30.469 7.0312-60.938 14.32-90.094 32.297-5.9297-1.6055-12.047-2.3945-18.188-2.3438h-226.1c-24.801 0-47.719 13.23-60.121 34.711s-12.402 47.941 0 69.422 35.32 34.711 60.121 34.711h226.1c12.609-0.042969 24.973-3.5078 35.766-10.031zm2.6016-32.672c-3.1602-1.2227-6.2227-2.6797-9.1641-4.3594-28.5-16.406-26.883-40.734-0.42188-58.266 28.805-19.078 54.422-25.008 86.719-32.367 23.016-5.2734 38.18-10.594 58.289-23.438 126.56-80.766 81.188-104.25 62.648-88.898-29.977 24.82-61.266 50.906-82.852 64.078-8.4297-15.852-18.418-30.82-29.812-44.695 22.57-19.219 43.945-37.148 57.844-47.391 14.414-10.617 18.188-11.297 36.352-12.797l76.898-5.0625c33.023-2.3438 38.039-4.8281 65.625-22.617l103.69 164.41-59.016 37.242c-19.5 12.281-34.969 22.031-54.258 23.906-8.9219 0.5625-17.867 0.5625-26.789 0-16.102-1.125-40.148-1.0312-59.906 3.0703-35.344 7.3828-67.969 26.133-100.1 38.977-33.141 13.266-69.867 18.984-103.38 13.852-7.6445-1.0156-15.148-2.9102-22.359-5.6484z" fill="#ff8260" fill-rule="evenodd"/>
</svg>
