<?xml version="1.0" encoding="UTF-8"?>
<svg width="1200pt" height="1200pt" version="1.1" viewBox="0 0 1200 1200" xmlns="http://www.w3.org/2000/svg">
 <path d="m633.6 600c0-27.602-10.801-55.199-31.199-74.398l-392.4-393.6c-40.801-40.801-108-40.801-148.8 0s-40.801 108 0 148.8l318 319.2-318 318c-40.801 40.801-40.801 108 0 148.8 20.398 20.398 48 31.199 74.398 31.199 26.398 0 54-10.801 74.398-31.199l392.4-392.4c20.406-19.203 31.207-46.801 31.207-74.402z" fill="#ff8260"/>
 <path d="m1138.8 525.6-392.4-393.6c-40.801-40.801-108-40.801-148.8 0-40.801 40.801-40.801 108 0 148.8l318 319.2-318 318c-40.801 40.801-40.801 108 0 148.8 20.398 20.398 48 31.199 74.398 31.199s54-10.801 74.398-31.199l392.4-392.4c19.199-19.199 31.199-46.801 31.199-74.398 0.003906-27.605-10.797-55.203-31.195-74.402z" fill="#ff8260"/>
</svg>
