<?xml version="1.0" encoding="UTF-8"?>
<svg width="1200pt" height="1200pt" version="1.1" viewBox="0 0 1200 1200" xmlns="http://www.w3.org/2000/svg">
 <path d="m1198 732.11-18.75-37.387c-2.5508-5.082-7.2734-8.7383-12.824-9.918l-258.49-55.387-221.7-166.3c-3.2422-2.4375-7.1797-3.75-11.25-3.75h-131.23v-18.805c0.09375 0 0.16797-0.054687 0.26172-0.054687h130.95c10.367 0 18.75-8.3828 18.75-18.75v-262.46c0-10.367-8.3828-18.75-18.75-18.75h-375.05c-10.367 0-18.75 8.3828-18.75 18.75v262.46c0 10.367 8.3828 18.75 18.75 18.75h121.48c0.13281 0 0.24219 0.074219 0.375 0.074219s0.24219-0.074219 0.375-0.074219h9.0547v18.844l-149.87-0.019531h-0.039062-0.09375-131.21c-6.2617 0-12.113 3.1328-15.602 8.3438l-112.5 168.79c-0.41406 0.61719-0.61719 1.3516-0.95703 2.0234-0.33594 0.61719-0.63672 1.1992-0.88281 1.875-0.78516 2.1016-1.3086 4.2578-1.3086 6.5078v150.07c-4.9883 0-9.7695 1.9688-13.273 5.5117-3.5273 3.5078-5.4961 8.3086-5.4766 13.297l0.30078 112.5c0 1.6484 0.54297 3.1133 0.95703 4.6328 0.22656 0.86328 0.1875 1.8203 0.52344 2.6445 0.39453 0.9375 1.1641 1.6484 1.707 2.5117 3.3203 5.2305 8.9062 8.9258 15.562 8.9258h0.054688 76.125c9.1484 63.508 63.77 112.5 129.79 112.5 65.98 0 120.6-48.992 129.75-112.5h490.46c9.1484 63.508 63.77 112.5 129.75 112.5 66.02 0 120.64-48.992 129.79-112.5h38.887 0.054688 0.019531c0.074219 0 0.14844-0.039062 0.22656-0.039062 2.3633-0.039063 4.707-0.48828 6.918-1.4062 2.3242-0.95703 4.3867-2.3242 6.1328-4.0703l37.461-37.312c3.5234-3.5234 5.5117-8.2891 5.5117-13.273l0.019531-150.36c0-2.8516-0.73047-5.4922-1.875-7.9141-0.074219-0.14844-0.054688-0.31641-0.11328-0.48438zm-47.137-10.352h-44.664v-11.531l43.555 9.3359zm-307.11-93.637h-337.48v-131.27l162.47 0.019531zm-599.98 0v-93.789c0-20.645 16.801-37.445 37.406-37.5l187.59 0.019531v131.27zm337.37-356.21v37.352h-18.75v-69.711c11.156 6.5391 18.75 18.52 18.75 32.359zm-262.48-93.863h337.55v224.96h-93.824v-56.25h37.5c10.367 0 18.75-8.3828 18.75-18.75v-56.102c0-41.344-33.582-74.961-74.887-75.094-0.039062 0-0.074219-0.019531-0.11328-0.019531h-0.039062-0.074219c-10.367 0-18.75 8.3828-18.75 18.75 0 0.20703 0.11328 0.35547 0.11328 0.54297v186.92h-84.395v-74.883h9.168c0.074218 0 0.13281 0.039062 0.1875 0.039062 20.699 0 37.539-16.836 37.539-37.539v-75.039c0-10.367-8.3828-18.75-18.75-18.75s-18.75 8.3828-18.75 18.75v18.75h-9.4141v-18.75c0-10.367-8.3828-18.75-18.75-18.75-10.367 0-18.75 8.3828-18.75 18.75v18.75h-9.3555v-18.75c0-10.367-8.3828-18.75-18.75-18.75-10.367 0-18.75 8.3828-18.75 18.75v74.98c0 0.039063-0.019531 0.054688-0.019531 0.09375 0 20.664 16.801 37.461 37.445 37.461h9.4492v74.887h-84.336zm131.23 93.785v18.637c0 0.054688-0.039062 0.09375-0.039062 0.14844h-56.23v-18.789zm18.789 168.68h37.574v18.844h-18.262c-0.16797 0-0.32031-0.09375-0.46875-0.09375-0.14844 0-0.32031 0.09375-0.46875 0.09375h-18.355l-0.003906-18.844zm-393.7 262.65h-18.75v-37.539h18.75zm150 318.79c-51.711 0-93.789-42.055-93.789-93.75 0-51.711 42.074-93.789 93.789-93.789 51.695 0 93.75 42.074 93.75 93.789 0 51.695-42.055 93.75-93.75 93.75zm749.96 0c-51.695 0-93.75-42.055-93.75-93.75 0-51.711 42.055-93.789 93.75-93.789 51.711 0 93.789 42.074 93.789 93.789 0 51.695-42.074 93.75-93.789 93.75zm161.01-112.5h-31.219c-9.1328-63.523-63.77-112.54-129.79-112.54-66 0-120.62 49.012-129.75 112.54h-490.46c-9.1328-63.523-63.75-112.54-129.75-112.54-66.02 0-120.66 49.012-129.79 112.54h-57.469l-0.1875-75h18.656c10.367 0 18.75-8.3828 18.75-18.75 0-10.352-8.3633-18.711-18.711-18.75v-56.289h37.5c10.367 0 18.75-8.3828 18.75-18.75v-75.035c0-10.367-8.3828-18.75-18.75-18.75h-21.227l87.508-131.29h56.664c-6.4492 11.082-10.426 23.793-10.426 37.5v112.54c0 10.367 8.3828 18.75 18.75 18.75h672.99l170.7 36.562v38.324c0 10.367 8.3828 18.75 18.75 18.75h75.039l-0.039062 123.8z" fill="#ff8260"/>
 <path d="m525 684.41h-18.75c-10.367 0-18.75 8.3828-18.75 18.75 0 10.367 8.3828 18.75 18.75 18.75h18.75c10.367 0 18.75-8.3828 18.75-18.75 0-10.371-8.3828-18.75-18.75-18.75z" fill="#ff8260"/>
 <path d="m262.24 684.41h-18.75c-10.367 0-18.75 8.3828-18.75 18.75 0 10.367 8.3828 18.75 18.75 18.75h18.75c10.367 0 18.75-8.3828 18.75-18.75 0-10.371-8.3828-18.75-18.75-18.75z" fill="#ff8260"/>
 <path d="m225 871.95c-31.012 0-56.25 25.238-56.25 56.25s25.238 56.25 56.25 56.25 56.25-25.238 56.25-56.25-25.238-56.25-56.25-56.25zm0 75c-10.352 0-18.75-8.3984-18.75-18.75 0-10.352 8.3984-18.75 18.75-18.75s18.75 8.3984 18.75 18.75c0 10.352-8.3984 18.75-18.75 18.75z" fill="#ff8260"/>
 <path d="m974.96 871.95c-31.012 0-56.25 25.238-56.25 56.25s25.238 56.25 56.25 56.25c31.012 0 56.25-25.238 56.25-56.25s-25.234-56.25-56.25-56.25zm0 75c-10.352 0-18.75-8.3984-18.75-18.75 0-10.352 8.3984-18.75 18.75-18.75 10.352 0 18.75 8.3984 18.75 18.75 0 10.352-8.3984 18.75-18.75 18.75z" fill="#ff8260"/>
</svg>
