<?xml version="1.0" encoding="UTF-8"?>
<svg width="1200pt" height="1200pt" version="1.1" viewBox="0 0 1200 1200" xmlns="http://www.w3.org/2000/svg">
 <path d="m422.55 679.51h354.92c18.27 0 34.445-7.1133 46.801-20.57s18.051-30.195 16.492-48.391l-32.227-374.87c-2.8398-33.109-30.051-58.09-63.281-58.09h-51.023v-18.82c0-51.672-42.035-93.723-93.723-93.723s-93.723 42.051-93.723 93.723v18.82h-52.027c-33.234 0-60.441 24.969-63.281 58.078l-32.207 374.88c-1.5664 18.195 4.1406 34.934 16.48 48.391 12.355 13.457 28.531 20.574 46.801 20.574zm127.97-520.73c0-27.562 22.422-49.984 49.984-49.984s49.984 22.422 49.984 49.984v18.82h-99.969zm-147.69 455.51 32.215-374.88c0.88281-10.309 9.3555-18.086 19.715-18.086h52.027v38.461c0 12.074 9.7969 21.871 21.871 21.871 12.074 0 21.871-9.7969 21.871-21.871v-38.461h99.969v38.461c0 12.074 9.7969 21.871 21.871 21.871 12.074 0 21.871-9.7969 21.871-21.871v-38.461h51.023c10.348 0 18.82 7.7773 19.715 18.086l32.215 374.88c0.51563 5.9141-1.125 10.703-5.1445 15.074-4.0156 4.3711-8.6445 6.4023-14.57 6.4023h-354.93c-5.9375 0-10.566-2.0312-14.57-6.4023-4.0156-4.3711-5.6445-9.1602-5.1445-15.074zm739.77 202.63c-4.2734-12.109-11.129-22.996-20.387-32.34-10.934-11.031-23.879-18.562-38.461-22.383-17.852-4.6758-36.77-3.3672-95.977 16.762-36.504 12.402-90.258 32.656-137.7 50.523-27.332 10.297-53.145 20.02-72.32 26.988-20.473 7.4336-32.852 11.645-42.906 14.008-1.1016-7.543-2.4961-16.406-4.1133-24.648-2.6562-13.578-6.5039-29.23-14.926-42.32-7.9336-12.344-19.445-21.832-35.191-29.043-13.727-6.2812-30.379-10.738-49.492-13.262-17.891-2.3633-37.824-3.0625-65.426-4.0156l-2.5586-0.085938c-20.254-0.71094-62.387-2.1797-81.797-3.5625-5.4141-0.37891-9.3555-0.78516-11.02-1.457-1.9336-0.78516-5.8047-3.6016-11.168-7.4805l-3.2812-2.375c-35.301-25.492-64.641-42.402-89.68-51.688-31.664-11.742-60.672-12.711-77.805-12.586-5.5469-24.562-27.539-42.957-53.742-42.957h-126.27c-30.379 0-55.102 24.711-55.102 55.102v389.78c0 30.379 24.711 55.09 55.102 55.09h126.26c19.492 0 37.199-10.578 47.02-26.547 12.219 0.32031 33.418 0.52734 67.738 0.67188 78.379 0.33203 229.79 0.33203 311.13 0.33203 80.645 0 87.219 0 153.83-34.211 17.156-8.8164 169.9-87.504 247.54-135.76 62.902-39.098 77.57-58.543 82.652-80.742 3.4219-15.016 2.7969-28.277-1.9531-41.797zm-896.6 262.93c0 0.58594-0.050781 1.1875-0.14844 1.7773 0 0.011719 0 0.023438-0.011718 0.035156-0.88281 5.4492-5.707 9.5508-11.203 9.5508h-126.26c-6.1602 0-11.363-5.2031-11.363-11.363v-389.78c0-6.1602 5.2031-11.363 11.363-11.363h126.26c6.1602 0 11.363 5.2031 11.363 11.363zm855.92-230.91c-1.0273 4.5078-3.7578 16.457-63.098 53.34-57.844 35.949-167.83 94.652-244.43 134-57.207 29.375-57.207 29.375-133.85 29.375-81.305 0-232.66 0-310.95-0.33203-13.188-0.050781-41.301-0.17188-59.852-0.50391l-0.003907-211.6c0.011719-34.238 0.011719-66.16 0.011719-89.512 0-17.645 0-32.742 0.41797-42.051 14.766 0.023437 36.969 1.0273 60.82 9.8711 31.629 11.73 67.492 37.629 79.273 46.141l3.207 2.3281c16.934 12.281 22.285 15.562 44.742 17.168 17.766 1.2734 50.57 2.4961 83.387 3.6484l2.5586 0.085937c26.375 0.91797 45.43 1.5781 61.223 3.6719 14.805 1.9609 27.258 5.2148 37.027 9.6719 8.1172 3.7109 13.238 7.6914 16.594 12.918 4.457 6.9297 7.0391 18.098 8.793 27.062 1.2109 6.1953 2.3125 12.906 3.2344 19.055-36.758-0.33203-103.85-0.33203-138.21 0-34.492 0.33203-40.395 0.92969-54.723 9.332l-0.37891 0.21875c-9.3203 5.4609-27.734 15.98-45.539 26.156l-0.46484 0.26953c-10.492 5.9883-14.129 19.348-8.1445 29.84 6 10.48 19.359 14.129 29.84 8.1445l0.46484-0.26953c17.902-10.238 36.43-20.816 45.957-26.398l0.39062-0.23438c4.9219-2.8906 5.2148-3.0625 33.012-3.332 34.211-0.33203 101.07-0.33203 137.58 0l3.1836 0.023437c37.016 0.34375 45.637-0.19531 98.668-19.457 19.422-7.0547 45.355-16.824 72.809-27.16 47.117-17.754 100.53-37.859 136.35-50.043 52.762-17.938 64.223-17.598 70.812-15.871 6.918 1.8125 13.141 5.4609 18.488 10.859 4.6758 4.7148 8.1055 10.125 10.211 16.09 1.7227 4.875 2.4062 9.4922 0.58203 17.5zm-930.62-5.5078c-23.988 0-43.492 19.52-43.492 43.492 0 23.988 19.52 43.492 43.492 43.492 23.977 0 43.492-19.52 43.492-43.492 0.003906-23.988-19.504-43.492-43.492-43.492zm0 43.676h-0.18359v-0.36719c0.023437-0.023437 0.12109-0.0625 0.18359-0.0625zm0.18359 0v-0.36719z" fill="#ff8260"/>
</svg>
