<?xml version="1.0" encoding="UTF-8"?>
<svg width="1200pt" height="1200pt" version="1.1" viewBox="0 0 1200 1200" xmlns="http://www.w3.org/2000/svg">
 <path d="m600 96c-277.92 0-504 226.08-504 504s226.08 504 504 504 504-226.08 504-504-226.08-504-504-504zm0 936c-238.22 0-432-193.78-432-432s193.78-432 432-432 432 193.78 432 432-193.78 432-432 432z" fill="#ff8260"/>
 <path d="m842.29 564h-206.29v-184.22c0-19.922-16.078-36-36-36s-36 16.078-36 36v184.22h-184.22c-19.922 0-36 16.078-36 36s16.078 36 36 36h184.22v184.22c0 19.922 16.078 36 36 36s36-16.078 36-36v-184.22h206.29c19.922 0 36-16.078 36-36s-16.078-36-36-36z" fill="#ff8260"/>
</svg>
