<?xml version="1.0" encoding="UTF-8"?>
<svg width="1200pt" height="1200pt" version="1.1" viewBox="0 0 1200 1200" xmlns="http://www.w3.org/2000/svg">
 <path d="m956.26 637.5c-3.8906 0-7.6406 0.42188-11.484 0.5625l-42.281-338.06h53.766c31.031 0 56.25-25.219 56.25-56.25s-25.219-56.25-56.25-56.25h-37.5c-10.359 0-18.75 8.3906-18.75 18.75s8.3906 18.75 18.75 18.75h37.5c10.359 0 18.75 8.3906 18.75 18.75s-8.3906 18.75-18.75 18.75h-243.74c-10.359 0-18.75 8.3906-18.75 18.75s8.3906 18.75 18.75 18.75h152.21l21.094 168.74h-346.03l-10.828-56.25h89.812c10.312 0 18.75-8.4375 18.75-18.75 0-62.062-50.438-112.5-112.5-112.5h-93.75v131.26h59.484l10.828 56.25h-107.81v-356.26c0-10.359-8.3906-18.75-18.75-18.75h-337.5c-10.359 0-18.75 8.3906-18.75 18.75v356.26c-10.359 0-18.75 8.3906-18.75 18.75s8.3906 18.75 18.75 18.75h196.69l104.44 143.58c-24-7.9219-49.547-12.328-76.125-12.328-134.39 0-243.74 109.36-243.74 243.74 0 134.38 109.36 243.74 243.74 243.74 128.06 0 233.16-99.328 242.81-225h113.44c5.9062 0 12.234-4.0312 14.625-7.0312l280.36-350.44 12.469 99.891c-111.14 22.641-195 121.13-195 238.82 0 134.39 109.36 243.74 243.74 243.74 134.39 0 243.74-109.36 243.74-243.74 0-134.38-109.36-243.74-243.74-243.74zm-862.5-300v-18.75c0-55.641 40.641-101.86 93.75-110.81v-1.6875c0-10.359 8.3906-18.75 18.75-18.75 10.359 0 18.75 8.3906 18.75 18.75v1.6875c53.109 8.9531 93.75 55.172 93.75 110.81v18.75c10.359 0 18.75 8.3906 18.75 18.75s-8.3906 18.75-18.75 18.75h-225c-10.359 0-18.75-8.3906-18.75-18.75s8.3906-18.75 18.75-18.75zm279.89 525c-4.2656-29.672-18.609-56.016-39.281-75.844l21.984-30.75c30 26.953 50.391 64.406 55.078 106.59zm26.531-167.95 114.09-159.74 63 327.71h-90.75c-5.1562-67.266-37.594-126.98-86.391-167.95zm88.406-188.29-112.36 157.31-114.38-157.31zm-244.82 543.74c-93.047 0-168.74-75.703-168.74-168.74 0-93.039 75.703-168.74 168.74-168.74 29.812 0 57.797 7.8281 82.172 21.469l-21.984 30.75-96.609 135.28h204.1c-9.375 84.234-80.953 150-167.63 150zm366.98-212.21-63.75-331.55h329.02zm345.52 212.21c-93.047 0-168.74-75.703-168.74-168.74 0-79.453 55.266-146.11 129.37-163.92l20.766 166.26c0 0.046875 0.046875 0.046875 0.046875 0.09375 1.2188 10.266-6.0469 19.547-16.312 20.812-0.75 0.1875-1.5 0.1875-2.4375 0.1875-9.1875 0-17.25-6.9375-18.562-16.5l-14.625-117.56c-36.562 23.25-60.75 64.125-60.75 110.62 0 72.375 58.875 131.26 131.26 131.26 72.383 0 131.26-58.875 131.26-131.26 0-71.531-57.516-129.74-128.76-131.11l-4.6875-37.5c0.75 0 1.4531-0.09375 2.2031-0.09375 93.047 0 168.74 75.703 168.74 168.74 0 93.039-75.703 168.74-168.74 168.74zm-675-712.5h-150v-18.75c0-41.344 33.656-75 75-75s75 33.656 75 75zm-73.922 600h154.82c-21.141 44.25-66.188 75-118.41 75-72.375 0-131.26-58.875-131.26-131.26 0-72.383 58.875-131.26 131.26-131.26 7.875 0 15.562 0.84375 23.062 2.1562l-90.047 126.05c-8.2031 11.484-9.2812 26.391-2.8594 38.953 6.4688 12.562 19.266 20.344 33.375 20.344z" fill="#ff8260"/>
</svg>
