<?xml version="1.0" encoding="UTF-8"?>
<svg width="1200pt" height="1200pt" version="1.1" viewBox="0 0 1200 1200" xmlns="http://www.w3.org/2000/svg">
 <path d="m600 60c298.22 0 540 241.78 540 540s-241.78 540-540 540-540-241.78-540-540 241.78-540 540-540zm-210 576h420c47.391 0 47.391-72 0-72h-420c-47.391 0-47.391 72 0 72zm540.94-366.94c-182.76-182.76-479.11-182.76-661.87 0-182.76 182.76-182.76 479.11 0 661.82 182.76 182.76 479.11 182.76 661.87 0 182.76-182.72 182.76-479.06 0-661.82z" fill="#ff8260" fill-rule="evenodd"/>
</svg>
