<?xml version="1.0" encoding="UTF-8"?>
<svg width="1200pt" height="1200pt" version="1.1" viewBox="0 0 1200 1200" xmlns="http://www.w3.org/2000/svg">
 <path d="m930.94 301.22h-173.39v-21.141c0-35.297-28.781-64.078-64.078-64.078h-186.94c-35.297 0-64.078 28.688-64.078 64.078v21.141h-173.39c-15.375 0-27.844 12.469-27.844 27.844s12.469 27.844 27.844 27.844h40.312l33 552.84c2.5312 41.766 37.219 74.391 78.938 74.391h357.24c41.766 0 76.547-32.625 78.938-74.391l33-552.84h40.312c15.375 0 27.844-12.469 27.844-27.844s-12.469-27.844-27.844-27.844zm-432.94-21.141c0-4.6875 3.7031-8.3906 8.3906-8.3906h186.94c4.6875 0 8.3906 3.7031 8.3906 8.3906v21.141h-203.86v-21.141zm303.94 626.16c-0.70312 12.375-11.062 22.078-23.391 22.078h-357.24c-12.375 0-22.688-9.7031-23.391-22.078l-32.859-549.47h469.78l-32.859 549.47z" fill="#ff8260"/>
 <path d="m467.39 428.06c-15.375 0.84375-27.141 14.062-26.156 29.391l21 369.14c0.84375 14.766 13.078 26.297 27.703 26.297h1.5469c15.375-0.84375 27.141-14.062 26.156-29.391l-21-369.14c-0.84375-15.375-14.062-27.234-29.391-26.156z" fill="#ff8260"/>
 <path d="m732.61 428.06c-15.141-0.84375-28.453 10.781-29.391 26.156l-21 369.14c-0.84375 15.375 10.781 28.453 26.156 29.391h1.5469c14.625 0 26.859-11.391 27.703-26.297l21-369.14c0.84375-15.375-10.781-28.453-26.156-29.391z" fill="#ff8260"/>
 <path d="m600 428.06c-15.375 0-27.844 12.469-27.844 27.844v373.45c0 15.375 12.469 27.844 27.844 27.844s27.844-12.469 27.844-27.844v-373.45c0-15.375-12.469-27.844-27.844-27.844z" fill="#ff8260"/>
</svg>
