<?xml version="1.0" encoding="UTF-8"?>
<svg width="1200pt" height="1200pt" version="1.1" viewBox="0 0 1200 1200" xmlns="http://www.w3.org/2000/svg">
 <path d="m916.4 311.06h-96.844l0.046875-53.953c0-121.08-98.531-219.61-219.61-219.61-121.08 0-219.61 98.531-219.61 219.61v53.906h-96.797c-62.016 0-112.5 50.484-112.5 112.5v626.48c0 62.016 50.484 112.5 112.5 112.5h632.86c62.016 0 112.5-50.484 112.5-112.5l-0.046875-626.44c0-62.016-50.438-112.5-112.5-112.5zm-461.02-53.953c0-79.734 64.875-144.61 144.61-144.61s144.61 64.875 144.61 144.61v53.906h-289.22l-0.046875-53.906zm-171.79 128.95h96.844v29.109c0 20.719 16.781 37.5 37.5 37.5s37.5-16.781 37.5-37.5v-29.109h289.22v29.109c0 20.719 16.781 37.5 37.5 37.5s37.5-16.781 37.5-37.5v-29.109h96.844c20.719 0 37.5 16.828 37.5 37.5v476.29h-707.9v-476.29c0-20.672 16.828-37.5 37.5-37.5zm632.81 701.44h-632.81c-20.672 0-37.5-16.828-37.5-37.5v-75.141h707.86l-0.046875 75.141c0 20.672-16.781 37.5-37.5 37.5z" fill="#ff8260"/>
</svg>
