<?xml version="1.0" encoding="UTF-8"?>
<svg width="1200pt" height="1200pt" version="1.1" viewBox="0 0 1200 1200" xmlns="http://www.w3.org/2000/svg">
 <path d="m600 75c-289.5 0-525 235.5-525 525s235.5 525 525 525 525-235.5 525-525-235.5-525-525-525zm0 975c-248.16 0-450-201.84-450-450s201.84-450 450-450 450 201.84 450 450-201.84 450-450 450zm219.66-318.19c-7.0312 11.719-19.453 18.188-32.156 18.188-6.5625 0-13.219-1.7344-19.266-5.3438l-187.5-112.5c-11.297-6.7969-18.188-18.984-18.188-32.156v-225c0-20.719 16.781-37.5 37.5-37.5s37.5 16.781 37.5 37.5v203.76l169.31 101.58c17.766 10.641 23.531 33.656 12.844 51.469z" fill="#ff8260"/>
</svg>
