<?xml version="1.0" encoding="UTF-8"?>
<svg width="1200pt" height="1200pt" version="1.1" viewBox="0 0 1200 1200" xmlns="http://www.w3.org/2000/svg">
 <path d="m992.57 804.77h-542c-7.8516 0-14.691-5.0664-16.969-12.41l-129.93-415.62c-1.7734-5.3203-0.76172-11.145 2.5312-15.703 3.293-4.5586 8.6094-7.3438 14.184-7.3438h861.88c6.0781 0 11.652 3.0391 14.941 8.1055 3.293 5.0664 3.8008 11.398 1.2656 16.969l-189.7 415.87c-3.0391 6.0781-9.3711 10.129-16.211 10.129zm-528.83-35.457h517.43l173.49-380.16h-809.96z" fill="#ff8260"/>
 <path d="m874.55 804.77c-2.5312 0-5.0664-0.50781-7.3438-1.5195-8.8633-4.0508-12.918-14.691-8.8633-23.555l189.95-415.62c4.0508-8.8633 14.691-12.918 23.555-8.8633 8.8633 4.0508 12.918 14.691 8.8633 23.555l-189.95 415.87c-3.0391 6.332-9.3711 10.129-16.207 10.129z" fill="#ff8260"/>
 <path d="m756.77 804.77c-2.5312 0-5.0664-0.50781-7.3438-1.5195-8.8633-4.0508-12.918-14.691-8.8633-23.555l189.95-415.62c4.0508-8.8633 14.691-12.918 23.555-8.8633 8.8633 4.0508 12.918 14.691 8.8633 23.555l-189.95 415.87c-3.0391 6.332-9.625 10.129-16.211 10.129z" fill="#ff8260"/>
 <path d="m638.75 804.77c-2.5312 0-5.0664-0.50781-7.3438-1.5195-8.8633-4.0508-12.918-14.691-8.8633-23.555l189.95-415.62c4.0508-8.8633 14.691-12.918 23.555-8.8633 8.8633 4.0508 12.918 14.691 8.8633 23.555l-189.95 415.87c-3.0391 6.332-9.3711 10.129-16.211 10.129z" fill="#ff8260"/>
 <path d="m520.73 804.77c-2.5312 0-5.0664-0.50781-7.3438-1.5195-8.8633-4.0508-12.918-14.691-8.8633-23.555l189.95-415.62c4.0508-8.8633 14.691-12.918 23.555-8.8633 8.8633 4.0508 12.918 14.691 8.8633 23.555l-189.95 415.87c-3.0391 6.332-9.3711 10.129-16.207 10.129z" fill="#ff8260"/>
 <path d="m431.32 742.97c-2.5312 0-5.0664-0.50781-7.3438-1.5195-8.8633-4.0508-12.918-14.691-8.8633-23.555l161.33-353.82c4.0508-8.8633 14.691-12.918 23.555-8.8633 8.8633 4.0508 12.918 14.691 8.8633 23.555l-161.33 353.57c-3.293 6.8359-9.625 10.637-16.211 10.637z" fill="#ff8260"/>
 <path d="m383.2 589.74c-2.5312 0-5.0664-0.50781-7.3438-1.5195-8.8633-4.0508-12.918-14.691-8.8633-23.555l91.684-200.34c4.0508-8.8633 14.691-12.918 23.555-8.8633 8.8633 4.0508 12.918 14.691 8.8633 23.555l-91.684 200.34c-3.0391 6.5859-9.625 10.383-16.211 10.383z" fill="#ff8260"/>
 <path d="m1019.2 920.26h-532.63c-7.8516 0-14.691-5.0664-16.969-12.41l-202.11-646.35-253.53-55.469c-9.625-2.0273-15.703-11.652-13.422-21.023 2.0273-9.625 11.652-15.703 21.023-13.422l263.66 57.746c6.332 1.2656 11.145 5.8242 13.172 11.902l201.35 643.56h519.46c9.8789 0 17.73 7.8516 17.73 17.73-0.007813 9.8789-8.1133 17.73-17.738 17.73z" fill="#ff8260"/>
 <path d="m923.93 1028.9c-39.762 0-72.184-32.418-72.184-71.93 0-19.25 7.5977-37.23 21.023-50.906 13.676-13.676 31.66-21.023 50.906-21.023 39.762 0 72.184 32.418 72.184 72.184 0.25391 39.258-32.164 71.676-71.93 71.676zm0-108.65c-9.8789 0-18.996 3.8008-25.832 10.637-6.8398 6.8398-10.637 16.211-10.637 25.832 0 20.262 16.461 36.473 36.723 36.473s36.723-16.461 36.723-36.473c-0.25-20.008-16.715-36.469-36.977-36.469z" fill="#ff8260"/>
 <path d="m579.99 1028.9c-39.762 0-72.184-32.418-72.184-71.93 0-19.25 7.5977-37.23 21.023-50.906 13.676-13.676 31.66-21.023 50.906-21.023 39.762 0 72.184 32.418 72.184 72.184 0.25391 39.258-32.168 71.676-71.93 71.676zm0-108.65c-9.8789 0-18.996 3.8008-25.832 10.637-6.8398 6.8398-10.637 16.211-10.637 25.832 0 20.262 16.461 36.473 36.723 36.473 20.262 0 36.723-16.461 36.723-36.473-0.25391-20.008-16.715-36.469-36.977-36.469z" fill="#ff8260"/>
</svg>
